<?xml version="1.0" encoding="utf-8"?>
<!DOCTYPE svg PUBLIC "-//W3C//DTD SVG 20010904//EN" "http://www.w3.org/TR/2001/REC-SVG-20010904/DTD/svg10.dtd">
<svg version="1.0" xmlns="http://www.w3.org/2000/svg" width="1001px" height="301px" viewBox="0 0 1001 301" preserveAspectRatio="xMidYMid meet">
 <g fill="#010000">
  <path d="M0 150.5 l0 -150.5 468.1 0 468.1 0 -2 3.3 c-5 8.2 -21.3 37.9 -21 38.2 0.2 0.1 3.5 1.5 7.3 3 28.7 11.4 54.2 35.4 67.4 63.6 9.4 20 12.7 36.5 11.8 59.3 -0.7 18.4 -4.1 33.4 -11.1 48.2 -29.5 62.3 -100 90.2 -163.6 64.7 -10.2 -4.1 -16.5 -7.6 -26.5 -14.8 -5.1 -3.7 -7.7 -5 -8.2 -4.2 -0.5 0.6 -5.6 9.7 -11.5 20.2 l-10.6 19 -384.1 0.3 -384.1 0.2 0 -150.5z m795.7 84.3 c11.9 -21.3 23.8 -42.6 41.1 -73.6 7.8 -13.9 14.2 -25.5 14.2 -25.7 0 -0.3 -7.9 -0.5 -17.5 -0.5 l-17.5 0 0 -10.5 0 -10.5 23.8 0 23.7 0 7.3 -13.3 c3.9 -7.2 12.6 -22.9 19.2 -34.7 6.6 -11.8 12 -21.7 12 -22 0 -1.5 -17.4 -4.4 -28.5 -4.8 -33 -1.2 -64.4 11.7 -89.6 36.7 -23.7 23.5 -37 53.9 -37.2 84.6 -0.1 27.3 8.6 53 25.2 75 5.2 6.9 13 15.5 14.1 15.5 0.4 0 4.8 -7.3 9.7 -16.2z m160.1 -14 l-0.3 -4.3 -24.8 -0.3 -24.8 -0.2 0.7 -39 0.7 -39 -4.6 0 -4.7 0 0 16.3 c0 9 -0.3 28.6 -0.7 43.5 l-0.6 27.2 29.7 0 29.7 0 -0.3 -4.2z m-90.9 -45.8 l25.3 -46 38.4 0 38.4 0 0 -4.5 0 -4.5 -48.2 0 -48.3 0.1 -2.7 4.2 -2.7 4.2 5.5 0.3 c5.3 0.3 5.4 0.3 5.4 3.4 0 2.2 -6.3 14.4 -20.9 40.7 -27.4 49.5 -24.7 43.5 -20.8 46 1.7 1.1 3.7 2.1 4.2 2.1 0.6 0 12.4 -20.7 26.4 -46z m-777.2 0.8 c-0.1 -4.6 -0.3 -0.9 -0.3 8.2 0 9.1 0.2 12.8 0.3 8.3 0.2 -4.6 0.2 -12 0 -16.5z m24.2 13 c-0.1 -6.2 -0.5 -12.4 -0.9 -13.8 -0.5 -1.5 -0.8 2.8 -0.9 11.3 -0.1 8.5 0.3 13.7 0.9 13.7 0.6 0 1 -4.4 0.9 -11.2z m83.8 -13 c-0.1 -4.6 -0.3 -0.9 -0.3 8.2 0 9.1 0.2 12.8 0.3 8.3 0.2 -4.6 0.2 -12 0 -16.5z m287 0 c-0.1 -4.6 -0.3 -0.9 -0.3 8.2 0 9.1 0.2 12.8 0.3 8.3 0.2 -4.6 0.2 -12 0 -16.5z m123 0 c-0.1 -4.6 -0.3 -0.9 -0.3 8.2 0 9.1 0.2 12.8 0.3 8.3 0.2 -4.6 0.2 -12 0 -16.5z m23 3 c-0.1 -4 -0.3 -0.8 -0.3 7.2 0 8 0.2 11.2 0.3 7.3 0.2 -4 0.2 -10.6 0 -14.5z m23.2 10 c0 -6.2 -0.4 -12.2 -0.9 -13.3 -0.5 -1.3 -0.9 2.9 -0.9 11.3 -0.1 8.2 0.3 13.2 0.9 13.2 0.6 0 1 -4.4 0.9 -11.2z m-292.2 -24.5 c-0.1 -6.5 -0.3 -1.2 -0.3 11.7 0 12.9 0.2 18.2 0.3 11.8 0.2 -6.5 0.2 -17.1 0 -23.5z m-208.8 21.5 c-0.1 -5.7 -0.4 -9.3 -0.7 -8 -0.7 2.3 -0.4 18.2 0.4 18.2 0.2 0 0.4 -4.6 0.3 -10.2z m149 1 c0 -5.1 -0.4 -10.2 -0.9 -11.3 -0.6 -1.3 -0.9 2 -0.9 9.3 -0.1 6.8 0.3 11.2 0.9 11.2 0.6 0 1 -3.7 0.9 -9.2z m390.8 -6.5 c-0.2 -3.2 -0.3 -0.8 -0.3 5.2 0 6.1 0.1 8.7 0.3 5.8 0.2 -2.9 0.2 -7.8 0 -11z m-437.9 -4.5 c-0.1 -14.1 -0.3 -17.5 -0.8 -12.8 -1.4 12.3 -1 32 0.6 32 0.2 0 0.3 -8.7 0.2 -19.2z m124.9 3.5 c-0.2 -2.7 -0.3 -0.5 -0.3 4.7 0 5.2 0.1 7.4 0.3 4.8 0.2 -2.7 0.2 -6.9 0 -9.5z m161 -7.5 c-0.1 -4 -0.3 -0.8 -0.3 7.2 0 8 0.2 11.2 0.3 7.3 0.2 -4 0.2 -10.6 0 -14.5z m26 7.5 c-0.2 -2.7 -0.3 -0.5 -0.3 4.7 0 5.2 0.1 7.4 0.3 4.8 0.2 -2.7 0.2 -6.9 0 -9.5z m-394 -17.1 c-0.1 -5.3 -0.3 -0.7 -0.3 10.3 0 11 0.2 15.4 0.3 9.7 0.2 -5.7 0.2 -14.7 0 -20z m165 18.6 c-0.2 -2.4 -0.4 -0.7 -0.4 3.7 0 4.4 0.2 6.3 0.4 4.3 0.2 -2.1 0.2 -5.7 0 -8z m65 -3 c-0.2 -1.3 -0.4 -0.5 -0.4 1.7 -0.1 2.2 0.1 3.2 0.4 2.3 0.2 -1 0.2 -2.8 0 -4z m187 0 c-0.2 -1.3 -0.4 -0.5 -0.4 1.7 -0.1 2.2 0.1 3.2 0.4 2.3 0.2 -1 0.2 -2.8 0 -4z m-150.8 -13.5 c0 -2.9 -0.2 -3.3 -0.8 -1.8 -0.7 1.8 -0.4 5.5 0.5 5.5 0.2 0 0.4 -1.7 0.3 -3.7z m-382.6 -7.3 c-0.3 -1.1 -0.9 -2 -1.3 -2 -0.4 0 -1 0.9 -1.3 2 -0.4 1.5 0 2 1.3 2 1.3 0 1.7 -0.5 1.3 -2z m394.4 -56.7 c-0.1 -5.4 -0.3 -1.2 -0.3 9.2 0 10.5 0.2 14.9 0.3 9.8 0.2 -5.1 0.2 -13.6 0 -19z m-154.7 0.2 c0 -14.3 -0.4 -22.5 -1 -22.5 -0.6 0 -1 8.2 -1 22.5 0 14.3 0.4 22.5 1 22.5 0.6 0 1 -8.2 1 -22.5z m29.7 -12.7 c-0.1 -6.8 -0.3 -1.5 -0.3 11.7 0 13.2 0.2 18.7 0.3 12.3 0.2 -6.4 0.2 -17.2 0 -24z m23 15.5 c-0.2 -3.8 -0.3 -0.7 -0.3 6.7 0 7.4 0.1 10.5 0.3 6.8 0.2 -3.8 0.2 -9.8 0 -13.5z m20 -4.5 c-0.1 -4.6 -0.3 -0.9 -0.3 8.2 0 9.1 0.2 12.8 0.3 8.3 0.2 -4.6 0.2 -12 0 -16.5z m161 -9.5 c-0.1 -6.5 -0.3 -1.4 -0.3 11.2 0 12.7 0.2 18 0.3 11.8 0.2 -6.2 0.2 -16.5 0 -23z m79.3 17.7 c0 -10 -0.4 -16 -1 -16 -0.6 0 -1 6 -1 16 0 10 0.4 16 1 16 0.6 0 1 -6 1 -16z m23 2 c0 -8.7 -0.4 -14 -1 -14 -0.6 0 -1 5.3 -1 14 0 8.7 0.4 14 1 14 0.6 0 1 -5.3 1 -14z m21.7 -4.7 c-0.2 -3.7 -0.3 -0.9 -0.3 6.2 0 7.2 0.1 10.2 0.3 6.8 0.2 -3.4 0.2 -9.3 0 -13z m-243.8 7 c-0.2 -12.8 -1.6 -15.3 -1.8 -3 -0.1 6.5 0.3 10.7 0.9 10.7 0.6 0 1 -3.2 0.9 -7.7z m82.8 -8.5 c-0.2 -2.9 -0.3 -0.8 -0.3 4.7 0 5.5 0.1 7.9 0.3 5.3 0.2 -2.6 0.2 -7.1 0 -10z m179 -0.5 c-0.2 -2.7 -0.3 -0.5 -0.3 4.7 0 5.2 0.1 7.4 0.3 4.8 0.2 -2.7 0.2 -6.9 0 -9.5z m-203 1.5 c-0.2 -2.4 -0.4 -0.7 -0.4 3.7 0 4.4 0.2 6.3 0.4 4.3 0.2 -2.1 0.2 -5.7 0 -8z m-41 -1 c-0.2 -2.4 -0.4 -0.7 -0.4 3.7 0 4.4 0.2 6.3 0.4 4.3 0.2 -2.1 0.2 -5.7 0 -8z m139 0.5 c-0.2 -2.1 -0.4 -0.4 -0.4 3.7 0 4.1 0.2 5.8 0.4 3.8 0.2 -2.1 0.2 -5.5 0 -7.5z m24.2 0.5 c-0.1 -1.3 -0.5 -3.4 -0.9 -4.8 -0.7 -2 -0.8 -1.6 -0.9 2.3 -0.1 2.6 0.4 4.7 0.9 4.7 0.6 0 1 -1 0.9 -2.2z m103.8 -3 c-0.2 -1.3 -0.4 -0.5 -0.4 1.7 -0.1 2.2 0.1 3.2 0.4 2.3 0.2 -1 0.2 -2.8 0 -4z"/>
 </g>
 <g fill="#0b73b9">
  <path d="M779.9 251.3 c-15.4 -16.1 -24.1 -30.7 -30.8 -51.6 -4.1 -12.8 -5.5 -22.9 -5.4 -39.2 0.1 -33.7 12.6 -63.2 37.2 -87.6 19.7 -19.5 41.5 -30.8 68.5 -35.5 12.8 -2.3 36.7 -1.5 49.4 1.6 6.6 1.6 9.2 2.6 8.8 3.5 -0.2 0.7 -6 11.1 -12.7 23.2 -6.7 12 -15.8 28.4 -20.3 36.5 l-8.1 14.7 -23.7 0.1 -23.8 0 0 7.5 0 7.5 19.4 0 19.3 0 4.9 -7.5 4.9 -7.4 51.3 -0.1 51.2 0 0 7.5 0 7.5 -38.4 0 -38.3 0 -26.3 47.5 -26.3 47.5 -7.8 -4.2 -7.7 -4.2 4.1 -7.6 c2.3 -4.1 13 -23.5 23.9 -43 l19.7 -35.5 -7.1 -0.3 c-4.9 -0.2 -7.5 0.1 -8.3 1 -0.7 0.7 -8.1 13.7 -16.5 28.8 -8.4 15.1 -19.3 34.7 -24.3 43.5 -4.9 8.8 -13.5 24.2 -19.1 34.2 -5.5 10.1 -10.4 18.3 -10.7 18.3 -0.3 0 -3.5 -3 -7 -6.7z"/>
  <path d="M894.3 196.3 c0.4 -17.4 0.7 -38.3 0.7 -46.5 l0 -14.8 8 0 8 0 -0.5 5.8 c-0.2 3.1 -0.7 20.7 -1 38.9 l-0.5 33.3 24.7 0.2 24.8 0.3 0.3 7.3 0.3 7.2 -32.7 0 -32.7 0 0.6 -31.7z"/>
 </g>
 <g fill="#ffffff">
  <path d="M138.5 300.3 c372.9 -0.7 630.3 -0.7 629.8 0 -0.2 0.4 -173.3 0.6 -384.6 0.5 -211.3 -0.2 -321.7 -0.4 -245.2 -0.5z"/>
  <path d="M868.8 289.3 c2.3 -0.2 5.9 -0.2 8 0 2 0.2 0.1 0.4 -4.3 0.4 -4.4 0 -6.1 -0.2 -3.7 -0.4z"/>
  <path d="M926.1 277.6 c1 -0.9 6.9 -3.6 6.9 -3.2 0 0.6 -5.5 3.6 -6.6 3.6 -0.4 0 -0.5 -0.2 -0.3 -0.4z"/>
  <path d="M962 252.5 c3.5 -3.6 6.7 -6.5 6.9 -6.5 0.3 0 -2.4 2.9 -5.9 6.5 -3.5 3.6 -6.7 6.5 -6.9 6.5 -0.3 0 2.4 -2.9 5.9 -6.5z"/>
  <path d="M130.1 202.7 c-3.8 -1.9 -6.4 -7.1 -5.7 -11.1 0.8 -4.2 3.6 -6.1 13.6 -9.5 6.3 -2.2 7.6 -3.1 8.5 -5.5 0.8 -2.4 0.6 -3.1 -1.4 -4.7 -4.3 -3.5 -12.1 -1.8 -12.1 2.6 0 2.2 -0.4 2.5 -3.5 2.5 -3.1 0 -3.5 -0.3 -3.5 -2.6 0 -6 5 -9.4 13.9 -9.4 11.6 0 14.1 3.5 14.1 20.3 0 11.2 0.1 11.9 2.1 12.4 1.2 0.4 1.8 1.1 1.5 2 -0.3 0.8 -0.6 1.9 -0.6 2.4 0 1.7 -5.7 0.9 -7.4 -1 -1.7 -1.9 -1.8 -1.9 -5.3 0.5 -4 2.7 -10.2 3.2 -14.2 1.1z m14.5 -6.8 c1.9 -1.8 2.4 -3.3 2.4 -7.2 0 -4.3 -0.2 -4.8 -1.7 -4.2 -1 0.4 -4.2 1.6 -7.1 2.7 -7.2 2.7 -8.9 6.1 -5.1 9.9 2.6 2.6 8 2.1 11.5 -1.2z"/>
  <path d="M214.3 202.9 c-3.8 -1.1 -4.3 -1.8 -3.3 -4.5 0.8 -2.1 0.9 -2.1 6.9 -0.5 5.5 1.4 6.4 1.4 8.9 0.1 1.9 -1.1 2.8 -2.5 3 -4.6 0.4 -3.7 -0.4 -4.4 -8.7 -7.7 -7.5 -2.9 -9.8 -4.7 -10.7 -8.2 -0.9 -3.6 1.7 -9.7 4.6 -11.2 5 -2.5 20 -1.3 20 1.6 0 3.6 -1.4 4.2 -6.5 3.1 -6.5 -1.5 -10.3 -0.5 -11.1 2.7 -0.8 3.2 0.4 4.2 8.9 7.8 3.7 1.5 7.4 3.7 8.2 4.8 1.7 2.5 2 9.9 0.5 12.8 -2.4 4.4 -12.3 6.2 -20.7 3.8z"/>
  <path d="M277.1 201.4 c-3.2 -2.6 -4.8 -7.6 -3.7 -11.2 0.9 -2.8 4.7 -5.1 13.5 -8.1 7.5 -2.6 7.6 -2.7 7.9 -6.3 0.3 -3.2 -0.1 -4 -2.3 -5 -1.7 -0.8 -3.7 -0.9 -6.3 -0.2 -3 0.7 -3.8 1.4 -4 3.7 -0.3 2.4 -0.7 2.7 -4.3 2.7 -3.8 0 -3.9 -0.1 -3.3 -2.7 1.6 -6.8 5.6 -9.3 14.4 -9.3 11.2 0 14 4.2 14 21.1 0 9.9 0.2 11.1 1.8 11.6 1.4 0.3 1.8 1.1 1.4 2.9 -0.6 3.2 -5.3 3.3 -8.2 0.2 -1.3 -1.4 -2.4 -1.9 -2.8 -1.2 -3.4 5 -13.2 6 -18.1 1.8z m15.6 -4.9 c1.9 -1.3 2.3 -2.4 2.3 -6.9 l0 -5.5 -6.2 2.5 c-8.9 3.4 -11.3 7.5 -6.5 10.9 2.5 1.8 6.7 1.4 10.4 -1z"/>
  <path d="M338.3 202.4 c-4.8 -2.4 -6.3 -6.6 -6.3 -17.9 0 -16 3.7 -20.1 17.1 -19.3 l6.9 0.4 0 -7.8 0 -7.8 3.5 0 3.5 0 0 26.5 0 26.6 -4.7 -0.1 c-2.7 0 -7.5 0.2 -10.8 0.5 -4.4 0.4 -6.9 0.1 -9.2 -1.1z m14 -4.5 l3.7 -1 0 -12.5 c0 -14.1 0.2 -13.9 -8.3 -13.9 -7.3 0 -8.7 2.2 -8.7 13.7 0 9.6 0.9 12.4 4.3 13.8 3 1.2 4.5 1.2 9 -0.1z"/>
  <path d="M380.3 202.5 c-5.1 -2.2 -6.3 -5.8 -6.3 -18.7 0 -8.9 0.4 -11.9 1.6 -13.7 5.1 -7.2 23.4 -6.6 27.1 0.9 0.7 1.4 1.3 5.3 1.3 8.8 l0 6.2 -11.5 0 -11.5 0 0 4.3 c0 5.5 1.6 7.6 6.2 8.3 5.2 0.9 8.7 -0.2 9.8 -3.1 0.7 -1.9 1.7 -2.5 4 -2.5 1.9 0 3 0.5 3 1.4 0 3.2 -2.1 6.6 -4.9 8.1 -3.7 1.9 -14.4 1.9 -18.8 0z m16.7 -25.4 c0 -4.9 -2 -6.6 -8 -6.6 -6 0 -8 1.7 -8 6.6 l0 3.9 8 0 8 0 0 -3.9z"/>
  <path d="M439.5 202.6 c-7.3 -2.3 -8.7 -3.4 -7.4 -5.9 0.7 -1.2 1.3 -2.3 1.4 -2.5 0.2 -0.2 3.5 0.7 7.5 1.9 8.5 2.6 14.6 2.2 17.2 -1.1 2.2 -2.7 2.4 -9.3 0.4 -11.3 -0.8 -0.8 -5.8 -2.9 -11.1 -4.7 -5.3 -1.9 -10.7 -4.4 -12 -5.6 -5.1 -4.7 -4.1 -15.4 1.8 -19.6 2.6 -1.9 4.8 -2.4 11.7 -2.6 5.4 -0.2 10 0.2 12.5 1 3.5 1.2 4 1.7 3.8 4.2 -0.3 3.8 -0.6 4 -4 2.3 -6.6 -3.4 -19.3 -2.9 -20.7 0.9 -1 2.7 -0.7 8.1 0.7 9.2 0.6 0.5 4.8 2.2 9.2 3.7 13.9 4.7 16.5 7.3 16.5 16.3 0 6.1 -2.6 11.1 -7 13.4 -4.1 2.1 -14.3 2.4 -20.5 0.4z"/>
  <path d="M500.2 202.5 c-2.8 -1.2 -3.2 -1.8 -2.6 -3.7 0.3 -1.3 0.7 -2.4 0.8 -2.5 0.1 -0.1 2.3 0.5 4.9 1.4 6.1 2 11.4 1.1 12.9 -2.3 1.9 -4.2 -0.2 -6.8 -7.5 -9.4 -9.7 -3.4 -11.2 -4.9 -11.2 -10.9 0 -7.1 2.4 -9.4 10.7 -9.9 3.5 -0.2 7.9 0 9.8 0.5 2.9 0.8 3.5 1.4 3.2 3.3 -0.1 1.3 -0.4 2.6 -0.6 2.8 -0.3 0.2 -3 -0.2 -6 -0.9 -6.8 -1.5 -10.6 -0.3 -10.6 3.5 0 3 1 3.8 9.3 7.1 7.7 3.1 9.7 5.3 9.7 10.7 0 5 -1.8 8.7 -5.1 10.4 -3.6 1.8 -13.4 1.7 -17.7 -0.1z"/>
  <path d="M567.3 202.5 c-5.1 -2.2 -6.3 -5.8 -6.3 -18.7 0 -8.9 0.4 -11.9 1.6 -13.7 5.1 -7.2 23.4 -6.6 27.1 0.9 0.7 1.4 1.3 5.3 1.3 8.8 l0 6.2 -11.5 0 -11.5 0 0 4.3 c0 5.5 1.6 7.6 6.2 8.3 5.2 0.9 8.7 -0.2 9.8 -3.1 0.7 -1.9 1.7 -2.5 4 -2.5 1.9 0 3 0.5 3 1.4 0 3.2 -2.1 6.6 -4.9 8.1 -3.7 1.9 -14.4 1.9 -18.8 0z m16.7 -25.4 c0 -4.9 -2 -6.6 -8 -6.6 -6 0 -8 1.7 -8 6.6 l0 3.9 8 0 8 0 0 -3.9z"/>
  <path d="M669.3 202 c-3.5 -2.1 -4.6 -4.9 -4.1 -10 0.4 -4.1 3.1 -6.2 12.7 -9.8 8.1 -3 9.7 -4.6 8.7 -8.5 -1.3 -5.3 -12.6 -4.4 -13.4 1.1 -0.3 1.8 -1 2.2 -3.8 2.2 -2.7 0 -3.4 -0.4 -3.4 -2 0 -6.1 5.4 -10 14 -10 6.3 0 11.3 2.2 12.9 5.6 0.6 1.4 1.1 7.5 1.1 13.9 0 10.4 0.2 11.5 2.1 12.9 1.2 0.8 1.9 2.2 1.7 3.3 -0.5 2.5 -4.9 2.8 -7.8 0.5 -2.3 -1.9 -2.4 -1.9 -5.8 0.4 -4.3 3 -10.5 3.1 -14.9 0.4z m12 -3.9 c4.3 -1.7 5.7 -3.9 5.7 -9.3 0 -4.4 -0.2 -4.9 -1.7 -4.3 -1 0.4 -4 1.6 -6.8 2.7 -5.6 2.2 -6.5 3.1 -6.5 7 0 4.1 4.1 5.9 9.3 3.9z"/>
  <path d="M709.3 202.9 c-3.2 -0.9 -3.9 -2.2 -2.8 -5.1 0.5 -1.2 1.5 -1.2 6.6 0.1 5.3 1.4 6.2 1.4 8.7 0.1 1.9 -1.1 2.8 -2.5 3 -4.6 0.4 -3.7 -0.5 -4.5 -8.7 -7.8 -8.7 -3.5 -10.1 -5 -10.1 -10.2 0 -2.3 0.3 -5 0.6 -5.9 1.1 -2.8 6 -4.5 12.6 -4.4 8.5 0.1 11.4 1 11 3.5 -0.6 3.2 -1.7 3.6 -6.2 2.4 -5.7 -1.5 -10.6 -0.6 -11.3 2.2 -1 3.5 0.7 5.2 7.7 7.8 7.7 2.8 10.2 5.1 11.1 10 0.7 4.3 -1.9 9.9 -5.5 11.7 -2.9 1.5 -12 1.6 -16.7 0.2z"/>
  <path d="M34.4 193.8 c1.8 -5.1 6 -16.6 9.2 -25.5 l5.9 -16.3 3.5 0 3.5 0 8.9 24.3 c4.9 13.3 9.1 24.8 9.3 25.5 0.4 0.8 -0.7 1.2 -3.4 1.2 -3.7 0 -3.9 -0.2 -5.6 -5 l-1.8 -5 -10.9 0 -10.8 0 -1.7 5 c-1.6 4.9 -1.8 5 -5.6 5 l-3.9 0 3.4 -9.2z m27.6 -6.6 c0 -2.5 -8.9 -25.5 -9.4 -24.2 -0.3 0.8 -2.4 6.8 -4.5 13.3 l-4 11.7 9 0 c4.9 0 8.9 -0.4 8.9 -0.8z"/>
  <path d="M84 184 l0 -19 3.5 0 c2.5 0 3.5 0.4 3.5 1.5 0 1.4 0.3 1.4 3 0 7 -3.6 18.4 -0.5 20.1 5.5 0.4 1.4 0.7 8.9 0.8 16.8 l0.1 14.2 -4 0 -4 0 0 -14.9 c0 -16.9 -0.3 -17.6 -7.5 -17.6 -2.8 0 -5 0.7 -6.4 1.9 -1.9 1.8 -2.1 2.9 -2.1 16.3 l0 14.3 -3.5 0 -3.5 0 0 -19z"/>
  <path d="M170.3 200.6 l-2.8 -2.4 -0.3 -24.1 -0.3 -24.1 3.5 0 3.6 0 0 22 c0 20.7 0.1 22.1 2 24 1.1 1.1 2.9 2 4 2 1.5 0 2 0.7 2 2.5 0 2.3 -0.4 2.5 -4.4 2.5 -3.3 0 -5.2 -0.6 -7.3 -2.4z"/>
  <path d="M192 184 l0 -19 3.5 0 3.5 0 0 19 0 19 -3.5 0 -3.5 0 0 -19z"/>
  <path d="M254.5 202.1 c-1.1 -0.5 -2.9 -1.9 -4 -3.1 -1.7 -1.9 -2 -3.9 -2.3 -15.6 l-0.4 -13.4 -2.9 0 c-2.4 0 -2.9 -0.4 -2.9 -2.5 0 -2.2 0.4 -2.5 3.5 -2.5 l3.5 0 0 -5.5 0 -5.5 3.5 0 3.5 0 0 5.5 0 5.5 4.5 0 c4.1 0 4.5 0.2 4.5 2.5 0 2.3 -0.4 2.5 -4.5 2.5 l-4.6 0 0.3 13.3 0.3 13.2 4.3 0.9 c3.5 0.8 4.2 1.4 4.2 3.3 0 2.1 -0.5 2.3 -4.2 2.2 -2.4 0 -5.2 -0.4 -6.3 -0.8z"/>
  <path d="M479 184 l0 -19 3.5 0 3.5 0 0 19 0 19 -3.5 0 -3.5 0 0 -19z"/>
  <path d="M540.5 201.6 c-4.6 -2 -5.5 -5.2 -5.5 -19.1 l0 -12.5 -3 0 c-2.5 0 -3 -0.4 -3 -2.5 0 -2.1 0.5 -2.5 2.9 -2.5 3.1 0 4.1 -1.8 4.1 -7.7 0 -3 0.3 -3.3 3 -3.3 3 0 3 0.1 3 5.5 l0 5.5 5 0 c4.7 0 5 0.2 5 2.5 0 2.3 -0.3 2.5 -5 2.5 l-5 0 0 11.6 c0 6.3 0.5 12.4 1 13.5 0.7 1.1 2.6 2.1 5 2.5 4.1 0.7 4.4 1.1 3.4 3.8 -0.8 2 -6.6 2.1 -10.9 0.2z"/>
  <path d="M602 184 l0 -19 3.5 0 c2.5 0 3.5 0.4 3.5 1.5 0 1.4 0.3 1.4 3 0 4 -2.1 11.8 -1.9 15.4 0.3 2.9 1.7 3.1 1.7 6.5 0 4.1 -2.1 11.5 -2.3 15.1 -0.5 4.8 2.4 6 6.8 6 22.5 l0 14.2 -4 0 -4 0 0 -14.7 c0 -8.2 -0.4 -15.3 -0.8 -15.9 -1.1 -1.7 -4.9 -2.6 -8.2 -1.9 -5.7 1.2 -6 2.3 -6 18.1 l0 14.4 -3.5 0 -3.5 0 0 -14.3 c0 -17 -0.5 -18.2 -7.3 -18.2 -3 0 -5.2 0.6 -6.6 1.9 -1.9 1.8 -2.1 2.9 -2.1 16.3 l0 14.3 -3.5 0 -3.5 0 0 -19z"/>
  <path d="M192 155.5 c0 -3.3 0.2 -3.5 3.5 -3.5 3.3 0 3.5 0.2 3.5 3.5 0 3.3 -0.2 3.5 -3.5 3.5 -3.3 0 -3.5 -0.2 -3.5 -3.5z"/>
  <path d="M479 155.5 c0 -3.3 0.2 -3.5 3.5 -3.5 3.3 0 3.5 0.2 3.5 3.5 0 3.3 -0.2 3.5 -3.5 3.5 -3.3 0 -3.5 -0.2 -3.5 -3.5z"/>
  <path d="M427.2 139.1 c-0.8 -0.5 -1.2 -1.7 -1 -2.7 0.3 -1.7 1.3 -1.9 7.5 -1.9 9 0 11.3 -1.7 11.3 -8.2 0 -4.2 -0.1 -4.3 -2.1 -3.2 -1.3 0.6 -4.9 0.9 -8.7 0.7 -5.8 -0.4 -6.8 -0.8 -9.3 -3.6 -2.8 -3.1 -2.9 -3.6 -2.9 -13.2 0 -11.6 0.8 -14.3 5.2 -17 3.7 -2.2 11.6 -2.7 15.1 -0.9 1.6 0.9 2.2 0.9 2.5 0 0.2 -0.6 1.9 -1.1 3.8 -1.1 l3.4 0 0 21.3 c0 23.3 -0.3 24.6 -5.9 28.4 -2.8 1.9 -4.7 2.3 -10.5 2.3 -3.9 0 -7.7 -0.4 -8.4 -0.9z m14.7 -21.2 l3.1 -1.1 0 -10.3 c0 -12 -0.6 -13 -8.2 -13 -7.1 0 -7.9 1.5 -7.6 13.5 0.3 8.9 0.4 9.5 2.8 10.7 3.1 1.6 5.8 1.6 9.9 0.2z"/>
  <path d="M385.9 125.5 c-3.2 -1.7 -5.2 -6.1 -4.7 -10.6 0.4 -3.9 4.1 -6.9 12.1 -9.5 7.7 -2.4 9.7 -4 9.7 -7.4 0 -3.7 -2.9 -5.4 -7.7 -4.7 -4.2 0.7 -6.3 2.3 -6.3 4.8 0 1.5 -0.7 1.9 -3.6 1.9 -3.6 0 -3.6 -0.1 -3 -3.2 1.1 -5.7 4.6 -8.1 12.1 -8.6 13.1 -0.9 15.6 2.3 16.3 20.1 0.3 8.8 0.8 12 1.8 12.4 0.8 0.3 1.4 1.6 1.4 2.9 0 2.1 -0.5 2.4 -3.4 2.4 -2.4 0 -3.9 -0.7 -5 -2.1 l-1.5 -2.2 -3.1 2.7 c-3.6 3 -10.6 3.5 -15.1 1.1z m14.8 -6 c1.9 -1.3 2.3 -2.4 2.3 -7 0 -3 -0.1 -5.5 -0.2 -5.5 -1.1 0 -12 4.9 -13.2 5.9 -1.7 1.4 -2.1 4.8 -0.8 6.7 1.8 2.7 7.6 2.7 11.9 -0.1z"/>
  <path d="M469.1 125.3 c-4.7 -2.3 -6.1 -6.4 -6.1 -17.8 0 -11.6 1.4 -15.5 6.3 -17.8 4.3 -2.1 13.5 -2.2 18.1 -0.3 5.8 2.4 6.6 4.6 6.6 18.1 0 13.5 -0.8 15.7 -6.6 18.1 -4.5 1.9 -14.1 1.7 -18.3 -0.3z m16.6 -5.9 c0.9 -1.2 1.3 -5.2 1.3 -11.9 0 -12.7 -0.8 -14 -8 -14 -7.6 0 -9 2.1 -9 13.7 0 9.6 0.9 12.4 4.3 13.8 3.2 1.4 9.9 0.4 11.4 -1.6z"/>
  <path d="M567.2 125 c-1.8 -1.1 -4 -3.6 -4.8 -5.5 -1.8 -4.5 -1.9 -20.4 0 -24.9 2 -4.8 7.1 -6.9 15.7 -6.4 6.2 0.3 7.3 0.7 10 3.5 2.8 2.7 3.2 3.9 3.7 10.2 l0.5 7.1 -12.3 0 -12.3 0 0.6 4.7 c0.6 6 3.3 8.3 9.2 8.3 4.5 0 7.5 -1.9 7.5 -4.6 0 -0.9 1.1 -1.4 3 -1.4 2.6 0 3 0.4 3 2.6 0 1.5 -1.2 3.8 -2.9 5.5 -2.7 2.7 -3.5 2.9 -10.3 2.9 -5.6 0 -8.1 -0.5 -10.6 -2z m16.8 -25.5 c0 -4 -0.3 -4.7 -2.7 -5.6 -6.4 -2.5 -13.3 1.3 -13.3 7.2 l0 2.9 8 0 8 0 0 -4.5z"/>
  <path d="M672.3 125.5 c-5.1 -2.2 -6.3 -5.8 -6.3 -18.7 0 -8.9 0.4 -11.9 1.6 -13.7 5.1 -7.2 23.4 -6.6 27.1 0.9 0.7 1.4 1.3 5.3 1.3 8.8 l0 6.2 -11.5 0 -11.5 0 0 4.3 c0 5.5 1.6 7.6 6.2 8.3 5.2 0.9 8.7 -0.2 9.8 -3.1 0.7 -1.9 1.7 -2.5 4 -2.5 1.9 0 3 0.5 3 1.4 0 3.2 -2.1 6.6 -4.9 8.1 -3.7 1.9 -14.4 1.9 -18.8 0z m16.7 -25.4 c0 -4.9 -2 -6.6 -8 -6.6 -6 0 -8 1.7 -8 6.6 l0 3.9 8 0 8 0 0 -3.9z"/>
  <path d="M709.3 125.9 c-3.2 -0.9 -3.9 -2.2 -2.8 -5.1 0.5 -1.2 1.5 -1.2 6.6 0.1 5.3 1.4 6.2 1.4 8.7 0.1 1.9 -1.1 2.8 -2.5 3 -4.6 0.4 -3.7 -0.5 -4.5 -8.7 -7.8 -8.7 -3.5 -10.1 -5 -10.1 -10.2 0 -2.3 0.3 -5 0.6 -5.9 1.1 -2.8 6 -4.5 12.6 -4.4 8.5 0.1 11.4 1 11 3.5 -0.6 3.2 -1.7 3.6 -6.2 2.4 -5.7 -1.5 -10.6 -0.6 -11.3 2.2 -1 3.5 0.7 5.2 7.7 7.8 7.7 2.8 10.2 5.1 11.1 10 0.7 4.3 -1.9 9.9 -5.5 11.7 -2.9 1.5 -12 1.6 -16.7 0.2z"/>
  <path d="M289 103.5 l0 -22.5 -7.5 0 -7.5 0 0 -3 0 -3 18.5 0 18.5 0 0 3 0 3 -7 0 -7 0 0 22.5 0 22.5 -4 0 -4 0 0 -22.5z"/>
  <path d="M320 99.5 l0 -26.5 3.5 0 3.5 0 0 9 0 9.1 3 -1.6 c6 -3.1 16.5 -1.2 19 3.4 0.6 1.1 1 8.8 1 17.5 l0 15.6 -3.5 0 -3.5 0 0 -14.9 c0 -10.7 -0.4 -15.1 -1.3 -15.9 -1.9 -1.6 -6.4 -2.5 -9.1 -1.8 -5.2 1.3 -5.6 2.6 -5.6 18.2 l0 14.4 -3.5 0 -3.5 0 0 -26.5z"/>
  <path d="M363 107 l0 -19 3.5 0 3.5 0 0 19 0 19 -3.5 0 -3.5 0 0 -19z"/>
  <path d="M524 100.5 l0 -25.5 3.5 0 3.5 0 0 23 0 23 11.5 0 11.5 0 0 2.5 0 2.5 -15 0 -15 0 0 -25.5z"/>
  <path d="M602 107 l0 -19 4 0 c2.8 0 4 0.4 4 1.4 0 1.2 0.5 1.2 3.1 -0.1 3.9 -2 13.1 -1.3 15.8 1.1 1.8 1.6 2 1.6 5.2 -0.3 4 -2.5 11.7 -2.8 15.8 -0.7 4.4 2.3 5.1 5.3 5.1 21.6 l0 15 -3.5 0 -3.5 0 0 -15 c0 -14.9 0 -15 -2.5 -16.6 -1.7 -1.1 -3.7 -1.5 -6.1 -1.1 -6.3 1 -6.4 1.4 -6.4 17.8 l0 14.9 -4 0 -4 0 0 -14.9 c0 -16.9 -0.3 -17.6 -7.5 -17.6 -7.2 0 -7.5 0.7 -7.5 17.6 l0 14.9 -4 0 -4 0 0 -19z"/>
  <path d="M363 78.5 c0 -3.3 0.2 -3.5 3.5 -3.5 3.3 0 3.5 0.2 3.5 3.5 0 3.3 -0.2 3.5 -3.5 3.5 -3.3 0 -3.5 -0.2 -3.5 -3.5z"/>
  <path d="M962.5 72.8 l-6 -6.3 6.3 6 c3.4 3.3 6.2 6.1 6.2 6.2 0 0.8 -1 -0.1 -6.5 -5.9z"/>
  <path d="M946.5 59.4 l-3 -2.6 3.3 2.2 c1.7 1.2 3.2 2.3 3.2 2.6 0 0.7 -0.4 0.5 -3.5 -2.2z"/>
 </g>
 <g fill="#838383">
 </g>
</svg>